<svg id="图层_1" data-name="图层 1" xmlns="http://www.w3.org/2000/svg" viewBox="0 0 417.73 79.92"><defs><style>.cls-1{fill:#9a0000;}.cls-2{fill:#3d3a39;}</style></defs><title>让法律更智能logo</title><path class="cls-1" d="M5.33,30c0,1.83-.62,3.65-.53,5.48.14,2.73.49,5.42.44,8.18-.07,3.86-.34,12-1.55,10.79-.19-1.26-.56-2.87-.81-4.14a27.62,27.62,0,0,1-.62-4.55c0-1.11.33-2.26.28-3-.2-2.89.77-4.8.77-7.46,0-1.09-.75-2.19-.84-3.27-.26-2.77.14-5.24.18-8.09,0-2.27-.88-4.33-.85-6.25.05-2.86-.22-3.92,3.34-3.89,1.54,0,2.21.41,3.78.27.45,0,3.06-.29,3.62-.31,2.62-.09,5.6-.4,8.29-.4,6.13,0,12.25.35,18.38.32,3.94,0,7.87-.38,11.8-.44,4.09-.06,8.17.09,12.26.1,6,0,11.93-.12,17.9-.09,1,0,1.3.7,1.3,1.77s.48,2.08.48,3.17c0,7.59.58,15.2.58,22.8,0,2.06-.9,4.13-.9,6.19,0,.94.9,1.88.9,2.82v4.88c0,1.87-1.19,3.74-1.19,5.61,0,.69-.19.74,0,1.45-2.47.82-1.62-1-1.58-6.08,0-2.15-.73-7-.4-9.17,0-1.4.59-1.76.59-3.15s-.59-2.75-.65-4.15c-.06-1.89-.13-3.82-.18-5.75,0-.46.64-1,.62-1.47,0-.92-.64-1.85-.7-2.77,0-.56,1.18-1.66,1.16-2.21,0-.86-.72-1.69-.83-2.49-.15-1,.33-2,.32-3,0-.48-.58-1.05-.55-1.52a12,12,0,0,1,.95-4.25c-.26-2.47-5.82-1.46-8.92-.39-1.85.63-3.91,0-5.87,0-1.53,0-3.23-1.4-4.77-1.4s-2.89,1.4-4.43,1.4h-11c-1.13,0-2.26-.7-3.4-.7-1.45,0-2.92.7-4.37.7H32.4c-1.64,0-3.27-.53-4.9-.53-.86,0-1.72.53-2.58.53H14.16c-1.08,0-2.24-.81-3.32-.81-.79,0-1.13.58-1.91.75A24.66,24.66,0,0,1,5,16c0,1.49-.38,3.35-.35,4.84.07,3.06.7,6.11.73,9.17" transform="translate(-1.8 -10.71)"/><path class="cls-1" d="M81,88.6c-.78-.12-1.33-.34-1.78-.42-4.19,0-8.39-.4-12.58-.42-5.4,0-10.79.32-16.18.3L31.38,88c-2,0-4.05.22-6.08.21-6.61,0-13.23-.29-19.85-.32L4.93,87l.85-2.37-.33-2.85A60.38,60.38,0,0,1,5.45,69c0-3.31-.33-6.67-.4-10a26.07,26.07,0,0,0-.16-3.53c-1.47.15-1.66.8-1.77,1.74a84.26,84.26,0,0,0-.63,10.66,7.75,7.75,0,0,0,.22,2.47,25.74,25.74,0,0,1,.54,5.89c0,2.34-.76,4.45-.76,6.78,0,2,.4,3.75.4,5.71,0,1.07.47,1.82,1.5,1.82,1.43,0,2-.3,3.45-.3.71,0,1.38-.2,2.09-.2s1.67.39,2.39.39c10.5,0,20,.06,30.46.06,2.12,0,4-.87,6.08-.87,1.64,0,4.31.53,6,.53,4.61,0,8.24.49,12.35.41,3.14-.06,6.59-.76,10.1-.86.8,0,1.61.24,2.42.27,1.81,0,1.91-.31,1.3-1.43" transform="translate(-1.8 -10.71)"/><path class="cls-1" d="M81.69,88c-.09-.21,0-1.39-.19-2.3s-.58-1.35-.58-1.84c0-6.67-.39-13.55-.25-20.12.91-2.84,2.5.67,2.5,2v5.75c0,1.25-.71,2.51-.71,3.76,0,1.61.71,3.23.71,4.85,0,1.78-.48,3.43-.48,5.22,0,1.08-.14,3.28-1,2.67" transform="translate(-1.8 -10.71)"/><path class="cls-1" d="M62.89,68.46a1.4,1.4,0,0,1-.42.07c-1.06,0-1.4,0-1.83.91-.22.49-.12.53-.45,1-.65.85-1.46.43-1.37-.66.49-2.12,0-3.71-2.45-4.37-1.62-.43-1.57-1-.39-1.57,2-.74,3.37-1.87,3.36-4V55.51a1.15,1.15,0,0,1,.36-.7,1.78,1.78,0,0,1,.94-.16c.26,0,.51-.11.73,0A1.44,1.44,0,0,1,62,55.84l.17,4.86a3.27,3.27,0,0,0,1.76,2c.58,0,1.16.08,1.73.08s1.35-.12,2-.11.75.27,1.31.32,1.52-.12,2,0a8.19,8.19,0,0,1,2.53.8c1.3,1.46.9,2.81-1.86,2.64a2.81,2.81,0,0,1-1.4-.46A4.39,4.39,0,0,0,69,65.48c-.8-.12-1.66.26-2.28-.14-1.48-1-2.66.06-3.67,2.13-.09.2-.07.77-.16,1" transform="translate(-1.8 -10.71)"/><path class="cls-1" d="M63.91,69.81c.6.94,1,1.88,1.7,2.76.38.5.84.74,1.2,1.19.51.66.9,1.47,1.39,2.06s1,.89,1.46,1.31a19,19,0,0,0,1.91,2,9.41,9.41,0,0,0,.93.51c1.24.76,3,.85,3.81,1.91s.87,1.82.36,2.4c-1.07,1.2-1.78.88-2.92.2A29.14,29.14,0,0,1,70.44,82a18.24,18.24,0,0,1-3.88-4.48A17.28,17.28,0,0,1,64.2,74a15.11,15.11,0,0,1-.85-3.89c0-.43.3-.68.56-.28" transform="translate(-1.8 -10.71)"/><path class="cls-1" d="M58.57,72.71l.61.4a12.47,12.47,0,0,1-1.25,3.19c-.24.41-.64.79-.92,1.2s-.52,1-.83,1.43-.61.46-.85.81-.12.56-.33.78A9.55,9.55,0,0,1,53,82a15.63,15.63,0,0,1-1.5,1c-2,.9-3.41.75-3.9-.27a1.94,1.94,0,0,1-.07-1.22,3.39,3.39,0,0,1,.6-.9.82.82,0,0,1,.69-.16c.58,0,1.44-.63,2-.8s1.1,0,1.79-.5c2-1.51,4-4.08,6-6.4" transform="translate(-1.8 -10.71)"/><path class="cls-1" d="M53.08,66c-.63.27-1.3.37-1.88.59a3.92,3.92,0,0,1-3.34.11c-1.27-.75-.89-1.61.61-2.42a29,29,0,0,0,4-.26c1.55.39,1.82,1.45.57,2" transform="translate(-1.8 -10.71)"/><path class="cls-1" d="M36.48,64.11c.14-2.34-.28-4-1.22-4.93s-.87-.26-1.44-.47A4.89,4.89,0,0,0,30.66,58a3,3,0,0,0-.49.14c-2.17-.13-2.27.53-.32,2a14.54,14.54,0,0,0,2.95,0c1.05.14,1.27.79,1.12,1.24s-.2.36-.35.42a1.49,1.49,0,0,1-.7,0c-1.84-.34-2.51,1.08-1,1.55l2.52-.08c.81.2.71,1.7-.15,2-.19,0-.39-.14-.59-.14-.61,0-1.21.08-1.82.06a1.36,1.36,0,0,0,.59,2.59c.79-.08.85-2.07,1.72-1.89s.64.58.66,1.22c0,1.17-.08,1.59-1.38,2.32a1.59,1.59,0,0,1-2-.34l-2.58,0a1.88,1.88,0,0,1-1.51.61,2,2,0,0,1-2.07-1c-.52-.87-.83-1.71,0-2.43s1.3-.58,1.68.61c0,.84,1,1,1.53.77s1.09-1.1.43-2.12c-.23-.36-.54-.31-.94-.32-1,0-2.88.55-3.36-.5-.36-.81.24-1.25,1.82-1.33,2,.15,3.29,0,2.06-1.3-.46-.47-.82,0-1.41.29-3,1.27-2.82-.46.35-3.17a.56.56,0,0,0,.15-.39.34.34,0,0,0-.26-.24,23.75,23.75,0,0,1-3.08.3,22,22,0,0,1-2.82-.09c-1.94-.4-2.7-1-.86-2.23,1.35.24,2.38-.34,3-1.93.32-1,2.69-1.06,3.18,0a1.83,1.83,0,0,0,1.42,1.57c.75.15.91-.05,1.62.31a2.62,2.62,0,0,0,1.77.16c3.15-.46,5.48-.27,6.94,4.54l0,1.4c1.4,3.59-1.6,4.44-2.06,1.53" transform="translate(-1.8 -10.71)"/><path class="cls-1" d="M17.17,69.36a3.72,3.72,0,0,1-1.12.43c-3.15.69-2.47-1.79-.78-2,1.35-.12,2.52.23,3.22-1.12.5-1-.19-1.19-1.53-1a.86.86,0,0,1-.76-.12c-.48-.34-.5-1,.17-1.46A6.32,6.32,0,0,1,18,64c.75-.24.8-1.4-.66-1.37-1.23-.27-1.14-1.38-.12-1.91a1.64,1.64,0,0,1,1.17-.11,17.69,17.69,0,0,0,3.33,0c.73-.07,1.18-.28,1.42.65.18.69-.49,1.19-1.34,1.19-1.33.43-1.41.81-.23,1.12,1.6,0,1.54,1.4-.22,1.8-1.16.26-.94,1.69.72,1.46a1,1,0,0,1,1.07.26c.78.72-.51,1.76-1.93,1.65a2.38,2.38,0,0,0-1.07.08,6,6,0,0,1-.86.36c-.45.08-1-.06-1.38,0a1.88,1.88,0,0,0-.68.22" transform="translate(-1.8 -10.71)"/><path class="cls-1" d="M18,58.55c-1.68-.08-3,.82-4,2.72a7.32,7.32,0,0,0-.29,1c-.21.51-.58.71-.62,1.41,0,.3.13.58.1.84-.24,1.57-1,1.94-2.11,1.35a12,12,0,0,1,.08-3.22c.09-.64.42-1.29.57-1.94.1-.45,0-.89.17-1.34a5.23,5.23,0,0,1,5.77-2.49c1.15.61,1.26,1.15.33,1.63" transform="translate(-1.8 -10.71)"/><path class="cls-1" d="M17.39,76.48a23.43,23.43,0,0,0,0,2.5c0,.79,1.4,1.47,1.69,1.17A8,8,0,0,1,21.6,80h.55c.65-.2,1.11-.86,2-.59h3.11c1.41-.47,3.16,1.49,4.31-.84a3.83,3.83,0,0,0,.15-1.77c0-.36,0-.71,0-1.06a2.33,2.33,0,0,0-.61-1.86A4.47,4.47,0,0,0,27.8,72.3c-1.29-.58-3.5-.44-5.4-.53A2.09,2.09,0,0,0,21,72c-.76.4-1.37,1-2.63.59-.37-.67.12-1.37,1.46-2.11a6.76,6.76,0,0,1,2.94-.36c1.44,0,2.95,0,4.1,0,.54.06.51.24,1,.29,1.47.13,2.93-.35,3.39.69.85.86,1.92,1.37,2.23,2.55.1.47.07,1,.18,1.47,0,.15.21.24.24.4.08.35-.11.7,0,1s.44.7.52,1A5.2,5.2,0,0,1,32,81.76a15.79,15.79,0,0,1-6.34-.28c-.74-.25-1.47.29-2.19.28a10.87,10.87,0,0,0-1.56-.13c-.41,0-.67.34-.93.35-.86,0-1-.08-1.9-.07q-1.83,1.59-3.33-1.24a2.13,2.13,0,0,1-.35-1.31c0-1.26-.1-2.25.44-2.74.09-1-.17-2.4.75-2.81,1.52-.69,1.71.52.83,2.67" transform="translate(-1.8 -10.71)"/><path class="cls-1" d="M23.22,75.12c-1.37-.08-1.73.49-2.43.27s-.42-1.13.8-1.81c1.37-.78,3.73-.12,5.14,0,.71.51.87.94.48,1.28-1.15,1-2.73.2-4,.29" transform="translate(-1.8 -10.71)"/><path class="cls-1" d="M21.46,78.48c-1.18.16-1.42-.66-.86-1.33a1.89,1.89,0,0,1,.59-.46l.14,0a.8.8,0,0,0,.15,0c.28,0,.59,0,.85,0s.5-.19.76-.22a7.72,7.72,0,0,1,2.23,0c.39,0,.45.27.82.32s1.28-.45,1.63.08a1.05,1.05,0,0,1-.61,1.34c-.57.25-1.39-.22-2.1-.13a12.48,12.48,0,0,1-1.75.1,5.89,5.89,0,0,0-1.85.44" transform="translate(-1.8 -10.71)"/><path class="cls-1" d="M28.06,83.09a.84.84,0,0,1,1.24-.34,1.64,1.64,0,0,0,.86.26c1.92,0,5.27-.39,5,1.76a1.58,1.58,0,0,1-1.19,1c-.44.12-.66,0-1.08-.12a5.11,5.11,0,0,0-1.36-.11c-.41,0-.56-.17-.93-.37-1-.52-1.91-.83-2.48-1.24-.28-.2-.2-.47,0-.8" transform="translate(-1.8 -10.71)"/><path class="cls-1" d="M18.18,83.13l1-.45c1.6-.74,2.4.33,1.53,1.43a10.68,10.68,0,0,1-1.3.57,5.53,5.53,0,0,1-2.95.49c-.76-.08-1.55.15-2.35,0s-.65-.8-.21-1.48c1.7-.94,2.16-1.16,3.1-.62.65.37.48.34,1.18,0" transform="translate(-1.8 -10.71)"/><path class="cls-1" d="M67,32.09c1.6-.25,3.23-1.47,4.85-1.73a2.6,2.6,0,0,0,2.49-2.9c-.09-.39-.41-1.14-.73-1.25s-1.19.2-2.16,1.13c-.5,1-2.59,1.61-4.2,2.6-1.38.43-2.11.22-2.2-.63a3.23,3.23,0,0,0-.3-1.27c-.25-.52-.22-.32-.06-.84a3.3,3.3,0,0,0,.08-.64,4.13,4.13,0,0,1,.09-1.1A5.91,5.91,0,0,0,65,24.14c.74-1.64,1.08-3,.1-3.62a1.36,1.36,0,0,0-1.55.08c-.56.4-.79,1.22-.7,2.45.49,1.83-.43,2.88-.2,4.29a1.86,1.86,0,0,0-.49,1.78c-.11,2.54.6,1.91.61,3-.3,1.18.12,2.68-.45,3.49-.12,1.54-.28,3.14.27,3.57,1.36,4.38,3.07,6.25,6.19,6,.39.11.5.44.88.55s.86-.18,1.36,0a3.24,3.24,0,0,0,1.92.07l.26-.06.25-.07a2.12,2.12,0,0,0,.36.21c.89.42,2.11.35,2.5-.31s-.09-2-.35-2.49l0-1.91c0-.9.2-1.61-.39-2.27-.8-.88-1.08-.69-2,.33-.55.36.59,1.91-.6,3.44-.44.55-.61.5-1.26.55-3.16.25-5.86-.44-6.08-3.35-.09-.93-.79-1.35-.71-2.24a5.19,5.19,0,0,0-.16-2.06,3.27,3.27,0,0,1,1.12-3.23c.41-.37.68-.19,1.19-.27" transform="translate(-1.8 -10.71)"/><path class="cls-1" d="M51.17,42.7c-.74.35-.51.37-1.36.42a2.29,2.29,0,0,0-1.69.84c-.68,1.53.29,3.24,2,2.29,2.66-1.35,5.2-2.11,8-4,.84-.76,1.1-1.45.76-2.06-.19-.37-.4-.41-.74-.58-1.1-.54-1.79-1-1.88-1.47l-.38.29c-1.07,3.84-3.32,3.68-4.68,4.3" transform="translate(-1.8 -10.71)"/><path class="cls-1" d="M54.35,24.4c.47,1.17.33,3.62.34,5.71,0,.83.21.84.42,1.56a4.39,4.39,0,0,1,.11,1.82c.17,3.67,1.67,3.69,1.3.2.2-1.32.83-.38.58-3.94a15.2,15.2,0,0,0,.1-4.17c0-.89,0-1.8,0-2.63,0-.58.1-.9-.54-1.14-1-.39-2.42.83-2.3,2.59" transform="translate(-1.8 -10.71)"/><path class="cls-1" d="M52.2,28.52c-1.12-.7-2-1.08-3.24-.57-1.72.71-1.67,2-.2,3A3.41,3.41,0,0,0,51.9,31c2.24-.76,2.11-1.37.3-2.47" transform="translate(-1.8 -10.71)"/><path class="cls-1" d="M17,39.43c-1-1.69-4.89,2.89-6.24,5.31-.77,1.37,1,3.79,1.9,2.2A17.2,17.2,0,0,0,17,39.43" transform="translate(-1.8 -10.71)"/><path class="cls-1" d="M16,31.71c-.93-.73-1.95-1.61-2.82-2.43a1.58,1.58,0,0,0-2.22.38,1.35,1.35,0,0,0-.34.5,1.68,1.68,0,0,0,.43,1.74l2.16,1.73a4.91,4.91,0,0,0,2.15.15,2,2,0,0,0,1.15-.85c.34-.54.29-.59-.51-1.22" transform="translate(-1.8 -10.71)"/><path class="cls-1" d="M15.17,20.48c-1.71.16-2.58,1.08-1.87,2.38a10.12,10.12,0,0,0,3.45,2.24c.65.28.9.78,1.22.84.33.27.8.24,1.41-.08a1.69,1.69,0,0,0,.34-2.15,4.86,4.86,0,0,1-.74-.53,13,13,0,0,0-3.81-2.7" transform="translate(-1.8 -10.71)"/><path class="cls-1" d="M36.36,45.76c1.16.92.93,1.74,2.76,2.17.71.16,1-.41.78-1.25a10.94,10.94,0,0,0-1.11-2.51,10.55,10.55,0,0,0-5.56-3.7c-.6-.18-1-.35-1.25.43a.65.65,0,0,0,0,.19c-.05.68.34.74.81,1.11s1.3.86,1.43,1.43a11.35,11.35,0,0,1-5.54,2.42c-2,.23-2.41.82-3.58-.31a5.07,5.07,0,0,0-1.43-1.06c-.46-.21-.55-.08-.6-.62-.17-2,1.95-3.31,3.73-4.57,1.39-1,2.3-2.11,3.15-2.47s1.06.06,2.31-.56a4,4,0,0,1,3.74.17,5.49,5.49,0,0,0,3.48-.4c.33-1.11-.75-1.55-3.34-1.9-1.74.2-3.52.1-5.26.3-.9.1-1.33-.91-1.48-1.69a10.56,10.56,0,0,1,.09-3c.21-.8.88-1.15,2-1.06,1.55-.18,3.51.54,4.66-.56a1.47,1.47,0,0,0-.36-1.68A1.53,1.53,0,0,0,34,26.24a11.28,11.28,0,0,1-4.56,0c-.36-1.69.58-3.72.42-5.66-.47-1.76-2.31-1.94-2.92-.39a5.15,5.15,0,0,0-.12,2.76l.58,1.1c-.07.72.1,1.83-.67,2.59-1.52.06-3.65-.24-4.86.6a4.36,4.36,0,0,0-.61.49c-1.29,1.4-.08,2.05,1,2a4.81,4.81,0,0,0,2.82-.86c.94-.67,1.64-.76,1.8-.18.3,1.12.68,4.71-.11,5.64a2.88,2.88,0,0,1-1.43.65c-1,0-11.7-.38-8.38,2.64.8.72,1,.54,2,.3,2.94-.67,6.09-2,6.31-1.37,0,1.48-2.6,3.44-4.24,6.31a2.09,2.09,0,0,0-1.8,1A1.77,1.77,0,0,0,19.65,46c.85.86,2,.75,2.6,1.44,1.12,1.34,1.46.8,3.47.62a1.49,1.49,0,0,1,1.44.1c.59.34.52.48,1.3.38,1.8-.24,3.72-1.9,5.55-2.66.8-.45,2.1-.63,2.35-.09" transform="translate(-1.8 -10.71)"/><path class="cls-2" d="M102,73.5h5.46c4.9,0,7.77,1.21,7.77,4.52s-2.87,4.75-7.64,4.75h-4.09v6.76H102Zm5.21,8.15c4.29,0,6.44-1,6.44-3.63s-2.23-3.4-6.57-3.4h-3.58v7Z" transform="translate(-1.8 -10.71)"/><polygon class="cls-2" points="135.42 62.79 136.91 62.79 136.91 71.62 137.02 71.62 147.34 62.79 149.17 62.79 142.32 68.78 150.14 78.82 148.38 78.82 141.31 69.69 136.91 73.44 136.91 78.82 135.42 78.82 135.42 62.79"/><path class="cls-2" d="M187.79,73.5v9.75c0,5-3.58,6.56-7.33,6.56s-7.21-1.53-7.21-6.56V73.5h1.5v9.66c0,4.17,2.71,5.47,5.71,5.47s5.81-1.3,5.81-5.47V73.5Z" transform="translate(-1.8 -10.71)"/><polygon class="cls-2" points="209.7 62.81 211.22 62.81 211.22 77.68 219.65 77.68 219.65 78.82 209.7 78.82 209.7 62.81"/><path class="cls-2" d="M256,84.15h-7.2l-2.11,5.38h-1.52l6.47-16h1.57l6.47,16h-1.62Zm-.4-1.06-1.12-2.89c-.76-1.87-1.37-3.56-2-5.49h-.1c-.64,1.93-1.27,3.62-2,5.49l-1.14,2.89Z" transform="translate(-1.8 -10.71)"/><path class="cls-2" d="M278.28,73.52h1.57l2.23,9.27c.43,1.73.84,3.47,1.25,5.22h.1c.45-1.75.94-3.49,1.42-5.22l2.82-9.27h1.49L292,82.79c.48,1.73.93,3.47,1.42,5.22h.12c.38-1.75.76-3.49,1.17-5.22L297,73.52h1.5l-4.06,16h-1.72l-3.28-10.7c-.3-1.27-.63-2.37-1-3.6h-.1c-.31,1.23-.69,2.33-1,3.6l-3.17,10.7h-1.73Z" transform="translate(-1.8 -10.71)"/><path class="cls-2" d="M311.68,88.63A1.3,1.3,0,1,1,313,89.81a1.22,1.22,0,0,1-1.29-1.18" transform="translate(-1.8 -10.71)"/><path class="cls-2" d="M331.3,81.51c0-5.11,3.27-8.28,8-8.28a6.84,6.84,0,0,1,4.87,1.94l-.86.85a5.58,5.58,0,0,0-4-1.6c-3.91,0-6.37,2.72-6.37,7s2.41,7.16,6.29,7.16a6.31,6.31,0,0,0,4.6-1.93l.86.83a7.37,7.37,0,0,1-5.53,2.28c-4.57,0-7.82-3.18-7.82-8.3" transform="translate(-1.8 -10.71)"/><path class="cls-2" d="M366.82,81.47c0-5.07,3.19-8.24,7.66-8.24s7.69,3.17,7.69,8.24-3.17,8.34-7.69,8.34-7.66-3.25-7.66-8.34m13.78,0c0-4.35-2.44-7-6.12-7s-6.07,2.7-6.07,7,2.42,7.16,6.07,7.16,6.12-2.81,6.12-7.16" transform="translate(-1.8 -10.71)"/><path class="cls-2" d="M403.71,73.52h2l3.81,9.2L411,86.24h.1c.48-1.17.91-2.35,1.37-3.52l3.81-9.2h2v16h-1.45V79.38c0-1.31.1-3.07.18-4.41h-.1l-1.45,3.58-3.88,9.27h-1.22l-3.91-9.27L405,75h-.1c.08,1.34.18,3.1.18,4.41V89.53h-1.4Z" transform="translate(-1.8 -10.71)"/><path class="cls-2" d="M220.5,44.59c-1.49,1.75-3.25,3-4.12,5,0,.13-.34.31-.4.27-.41-.24-1-.45-1.13-.81a4.92,4.92,0,0,1,.14-4.46,40.64,40.64,0,0,1,2.64-3.38c1.49-2.17,3.45-4,4.46-6.5a6.37,6.37,0,0,0,.21-.86c-1.05-.15-1.35.6-1.87,1.13a2.45,2.45,0,0,1-1.47.74c-.29,0-.74-.52-.93-.91a6,6,0,0,1-.13-4.84,5.23,5.23,0,0,1,.75-1.08c1.53-2.09,3.06-4.17,4.56-6.28a1.09,1.09,0,0,0,.07-.82c-.17-.67.21-1.18.89-1.08,1.19.17,3.79,3.29,3.91,4.49s-.66,1.53-1.37,2c-.51.36-1.07.65-1.58,1s-.3,1,.3,1.4a6.15,6.15,0,0,1,1.27.92,2.69,2.69,0,0,1,.41,2.66,4.64,4.64,0,0,1-1,2.64c-.12.11,0,.46,0,.7a1.42,1.42,0,0,0,.52-.11c2.18-1.36,4.34-2.75,6.52-4.1,1.29-.79,2.6-1.56,3.94-2.26a1.82,1.82,0,0,0,1.19-2.32c-.21,0-.52,0-.63.11-1.08,1.31-2.48,1-3.85.77a8.24,8.24,0,0,1-2.08-.58c-1-.47-1.08-.78-.56-2.1,1.23.59,2.2,0,3.21-.69,1.17-.75,2.43-1.38,3.61-2.11a1.23,1.23,0,0,0,.56-.82c.05-3.13,0-4.23.08-7.37,0-1-.77-1.29-1.23-1.95.25-.56.5-1.17.8-1.74a1,1,0,0,1,1.53-.28c.7.56,1.39,1.15,2.07,1.74a2.7,2.7,0,0,1,1.1,2.06,8.93,8.93,0,0,0,.51,1.9,2.1,2.1,0,0,1,0,.75c-.26,1.53-.55,1-.79,2.56a1.59,1.59,0,0,0,.18.86c.77-1.41,2-1.49,3.29-1.29,1,.14,2-.11,2.91.54.44.31,1.11,1.46.9,2-.29.71-.69,1.38-1,2.07a6.68,6.68,0,0,0-.23.73,13,13,0,0,1,6.8-.54l.73,2.26-.55.14c.31,1.21-.05,1.61-1.27,1.58a13.63,13.63,0,0,0-5.55,1.5c-.79.33-1.66.47-2.46.79s-1.64.84-2.49,1.19a4.7,4.7,0,0,1-1.29.13c0,.3-.06.59-.11,1,1,0,1.87,0,2.75-.12a2.06,2.06,0,0,1,2.1,1.3,5.61,5.61,0,0,0,.32,1,1.12,1.12,0,0,1-.71,1.51,3.44,3.44,0,0,0-1.5.76,5.83,5.83,0,0,1-2.58,1.68,3.23,3.23,0,0,0-.76.48c.22.64.55.83,1.2.63,1.86-.56,3.1.16,3.61,2.05a1,1,0,0,1-.22.81,5.05,5.05,0,0,1-1.84,1.16c-2,.43-2.57,1.09-2.14,3.33.76-.85,1.16-2,2.53-2a30,30,0,0,0,3.12-.18c.83.63-.27,2.29,1.47,2.08a2,2,0,0,1-2,1.85,3.36,3.36,0,0,0-1.28.67c-.56.36-1.08.77-1.6,1.17a4,4,0,0,0-2,2.67,12.61,12.61,0,0,0-.3,2.84c-.05.93-.07,1.86-.06,2.8,0,2.25,0,4.5.15,6.74a13.81,13.81,0,0,1-.31,2.75c-.1.92-.08,1.86-.22,2.78a12.33,12.33,0,0,1-.57,1.85,2.55,2.55,0,0,1-.3.72,2,2,0,0,1-.7.78c-.15.07-.56-.25-.74-.49-1.08-1.42-1.1-3.17-1.3-4.83a44.21,44.21,0,0,1-.08-4.89c0-1.73-.13-1.43-.12-3.17s.15-3.38.21-5.08a11.78,11.78,0,0,0-.13-1.27,12.78,12.78,0,0,1-1.18.92,6.5,6.5,0,0,1-3.95.74,2.62,2.62,0,0,1-2.17-1.9,2.27,2.27,0,0,1,1.34-2.34c0,.29.07.56.11.88.25,0,.51.08.65,0,1.63-1,3.26-2,4.83-3.11a1.56,1.56,0,0,0,.39-1.2c0-.4-.23-.91-.92-.52a5.68,5.68,0,0,1-1.53.48.79.79,0,0,1-.57-.17,6.23,6.23,0,0,1-.8-1c-.34-.54-.87-1.11-.86-1.66s.56-1.09,1-1.54c.24-.25.9-.51,1-.41.44.46.72.18,1-.12.57-.65,1.61-1,1.56-2.07,0-.27,0-.54-.06-.86-1.93,0-3.59-.34-4.29-2.18.3-.49.52-.92.8-1.3a1,1,0,0,1,.58-.35c1.53-.32,2.12-1.54,2.68-2.77.09-.18-.05-.48-.1-.82a22.61,22.61,0,0,0-6,3.64c-1.17,1.09-2.41,2.1-3.64,3.11a1.67,1.67,0,0,1-2.35-.42c-.4-.46-.79-.92-1.2-1.37a1.32,1.32,0,0,0-.28-.21c-.44.68-.89,1.34-1.3,2a.74.74,0,0,0,0,.52,31.59,31.59,0,0,1,1.3,3.34,3.59,3.59,0,0,1-.1,2c-.51,1.38-.06,2.63.28,3.91,0,.08.08.19.14.2,1.24.29.72,1.07.52,1.78-.31,1.15-.57,2.31-.89,3.45s-.61,2.16-1,3.2a1.12,1.12,0,0,1-1,.45c-.79-.41-1.73-.71-1.94-1.78a33,33,0,0,1-.64-3.55,14.85,14.85,0,0,1,.42-2.11c.16-2.27.25-4.55.35-6.82a5.17,5.17,0,0,0-.15-.89" transform="translate(-1.8 -10.71)"/><path class="cls-2" d="M390.58,19.58a4.48,4.48,0,0,1,3.05.16c.41.09.79.32,1.2.39,1.63.28,2.48,1.54,3.4,2.7a1.06,1.06,0,0,1,0,.85,2.92,2.92,0,0,1-2.76,1.48,2.15,2.15,0,0,0-2.09,1.32,19,19,0,0,1-1.86,3c-.34.48-1,.76-1.3,1.25-1.22,1.82-2.36,3.69-3.54,5.54-.2.32-.43.63-.64.94l.17.18.69-.44c1.57-1,3.19-1.93,4.69-3a12.69,12.69,0,0,0,2.55-2.52c.42-.55.64-1.3,1.43-1.13a23.64,23.64,0,0,1,3.79,1.14c.9.36,1,1.31.32,2.07a32.18,32.18,0,0,0-2.17,2.68c-1,1.6-2,3.28-3,5.13.84,0,1.48.12,2.12.12a4.61,4.61,0,0,1,2.88.92c.48.37.77.2,1.07-.18a18.45,18.45,0,0,0,1.23-1.57,14.24,14.24,0,0,1,3.18-3,2.48,2.48,0,0,0,.85-1.37c.46-2.95.87-5.9,1.21-8.87a44.47,44.47,0,0,0,.29-5.41,9,9,0,0,0-.74-2.24c-.3-1,.22-1.64,1.13-1.18a14,14,0,0,1,3.79,2.65c.93.95.28,2.2-.21,3.3s-.93,2.25-1.33,3.4a14.66,14.66,0,0,0-.45,2.09,51.88,51.88,0,0,0-.8,5.61c.19-.15.45-.26.56-.46.53-1,1.4-.91,2.31-.79a2.5,2.5,0,0,0,.77,0,6.64,6.64,0,0,1,4.44.73c.24.13.39.43.53.59l-.49,1.09c-1.31.64-2.75,1.28-4.12,2a3.31,3.31,0,0,0-1.1,1.24,1,1,0,0,0,.23.93,1.75,1.75,0,0,0,1.11.35c.92-.07,1.84-.27,2.77-.37.17,0,.38.16.55.28.46.32.9.66,1.34,1,.18.14.47.32.46.46a.77.77,0,0,1-.44.5c-.72.28-.78.57-.14,1a1,1,0,0,1,.38.75,1,1,0,0,1-.68.58,13.1,13.1,0,0,0-5.67,2.4,4.41,4.41,0,0,0-2.22,3.27c0,.61,0,1.23.07,2.07a32.84,32.84,0,0,0,3.45-.85,5,5,0,0,1,4.77.47,4.81,4.81,0,0,1,.93,1.07,6.53,6.53,0,0,1,1.06,4.37c0,.43-.39.86-.61,1.28a9.64,9.64,0,0,1-2.79,3.23c-.12.08-.3.21-.38.18-.86-.44-1.25.23-2,.73a5.28,5.28,0,0,1-.15-1.7c.26-1.09.75-2.12,1-3.21a22.23,22.23,0,0,0,.46-2.69c0-.14-.11-.3-.08-.23-.48.19-.87.33-1.25.51s-.66.36-1,.55a35.61,35.61,0,0,0-3.1,1.84,7.31,7.31,0,0,0-1.52,1.75c-.5.72-1.63,1.11-2.2.55a2.89,2.89,0,0,1-.77-1.5,22.3,22.3,0,0,1-.1-3.06c0-1.24,0-2.49,0-3.89-.85.44-1.61.86-2.38,1.24-.5.25-1,.56-1.6.14a1.65,1.65,0,0,1-.77-1.7c.08-.74,0-1.49,0-2.23a1,1,0,0,1,.46-.7,10.57,10.57,0,0,0,3.84-3.79,6.09,6.09,0,0,0,.84-4.12c-2,1.23-3.18,3-4.61,4.58s-1.2,3.9-2.39,5.71c.21.77.46,1.66.68,2.55a1.13,1.13,0,0,1,0,.73c-.56,1,0,1.87.14,2.81a3.18,3.18,0,0,1-.12,1.09,3.58,3.58,0,0,1-.23.79,2.61,2.61,0,0,1-.49.8,12.54,12.54,0,0,1-1.61,1.3c-.36.23-.92.57-1-.45-.37.57-.65,1-.95,1.46-.65.9-1.5.84-1.94-.15a41.47,41.47,0,0,1-1.82-4.31c-.64-2.06.08-4,.9-5.88a18.92,18.92,0,0,1,3.92-5.5c.47-.49.27-1,.24-1.5,0-.84-.65-.61-1.13-.67-.2,0-.4-.13-.6-.17a1.46,1.46,0,0,0-1.67,1.89A1.71,1.71,0,0,1,392.3,48c-1.41,1.07-1.47,2.6-1.5,4.09a24.71,24.71,0,0,1-.6,5.41c-.39,1.61-.33,3.32-.59,5a8.79,8.79,0,0,1-.8,2.38c-.25.56-1.66.22-2-.51a15.31,15.31,0,0,1-1.3-3.42,7.71,7.71,0,0,1,.43-2.8c.28-1.31.69-2.59.92-3.91.2-1.15.09-2.36.36-3.48.63-2.51,1.35-5,2.16-7.47.53-1.61,1.29-3.14,2-4.89-.29.26-.46.37-.59.52-1.91,2.18-3.84,4.34-5.72,6.54a14.73,14.73,0,0,0-1.47,2.11c-.64,1.07-1.43,1.07-2.45.37a2.91,2.91,0,0,1-1.33-2.58c0-.53-.35-1-.39-1.58a13.5,13.5,0,0,1,0-2.77,1.65,1.65,0,0,1,.88-1c.63-.27.76-.76.92-1.3a22.5,22.5,0,0,1,3.15-5.8c1.81-2.66,3.63-5.31,5.39-8a10.37,10.37,0,0,0,1.38-2.84A5,5,0,0,0,390.8,20a2.15,2.15,0,0,0-.22-.42" transform="translate(-1.8 -10.71)"/><path class="cls-2" d="M322.72,57.24l-.25-.18c.32-.47.62-1,1-1.41.6-.78,1.28-1.5,1.84-2.31,1.64-2.39,3.24-4.8,4.85-7.21a7.79,7.79,0,0,0,.72-1.25,1.3,1.3,0,0,0-.05-.86c-1.1,2.1-3.07,2-4.89,2-1,0-1.94-1.53-1.89-2.7a6.11,6.11,0,0,0-.24-1.62c-.1-.44-.28-.86-.42-1.29l.24-.14.64.23a8.5,8.5,0,0,1,1.16-.59,13.79,13.79,0,0,0,2.2-.7c1.44-.83,2.72-2,4.21-2.68,1.34-.65,2.22-2,3.81-2.3.43-.08.86-1,1-1.6a22,22,0,0,0,.37-3.16c0-.6-.23-.75-.8-.48s-1.29.45-1.88.77a15.82,15.82,0,0,0-1.59,1.13,1.64,1.64,0,0,0,.14.22,7.75,7.75,0,0,1-1.17-.42c-.69-.38-1.07-2.11-.87-3a7,7,0,0,0,.44-2.58c0-.36.38-.91.74-1.18,1.94-1.47,2.47-3.75,3.39-5.8.1-.22-.13-.61-.27-.88-.23-.45-.51-.86-.85-1.42,1-.12,1.77,1.3,2.62-.08,1.63,1.14,3.24,2.24,4.89,3.39l-.56.47a4.77,4.77,0,0,0,.9.15,6.75,6.75,0,0,1,5.73,2.42.89.89,0,0,1,.17.64,2,2,0,0,1-2,1.51,2.65,2.65,0,0,0-1.87.67A8.09,8.09,0,0,1,342,26.07c-1,.38-2.14.67-3.26,1a1.07,1.07,0,0,0,.14.36,24.36,24.36,0,0,0,2.26,2.39c.38.33,1.06.31,1.61.44a2.36,2.36,0,0,0,.52.09c.92,0,1,.34.43,1.1l1.1.53c-.23.38-.48.81-.72,1.24-.42.31-1.21.19-1.22,1.13,0,.07-.16.15-.26.2-1,.43-1.13.83-.83,1.58-.33.55-.55.93-.77,1.31,0,0,0,.13-.06.17l-.54.52c.31.27.58.71.92.78a24.54,24.54,0,0,0,3.51.42c.4,0,.81-.38,1.2-.57.14,1,.13,1.08-.43,1.38a3.71,3.71,0,0,1,1.62,3.5c.9-.4,1.58-.66,2.23-1A4.67,4.67,0,0,1,355,43.82c1,1.18,1.63,2.35.59,3.82a.75.75,0,0,0-.05.52c.19,1.13,0,2.27.18,3.42.17,1.33.72,2.53.86,3.84.16,1.59.28,3.19.43,4.79.08.93.2,1.87.31,2.91l-.24,1.65a9.08,9.08,0,0,1-.52,2c-.3,0,0,.36-.5.35.15.48-.5.5-.41.77l-1.42.56a2,2,0,0,1-.68.17,1.15,1.15,0,0,1-.62-.4c-.54-.54-1-1.12-1.59-1.66A12.76,12.76,0,0,0,350,65.35a1.26,1.26,0,0,0-.68-.12c-1.05,0-2.11-.12-3.15-.07a9.6,9.6,0,0,0-1.83.48c-.31-.39-.75-.92-1.19-1.45a1.23,1.23,0,0,1-1.26-.29c-.17-.82-1-1.47-1.31-2.29a3.41,3.41,0,0,1-.28-2.61c.06-.13-.09-.36-.19-.69.32-1.24.73-2.68,1.05-4.14.57-2.65,1.08-5.31,1.63-8a5,5,0,0,1,.47-.92L345,46.62c0-.42.11-.78,0-.91A16.68,16.68,0,0,0,342.17,43a7.14,7.14,0,0,1-2.32-2.82c-.2-.37-.33-.77-.62-1.48a22.9,22.9,0,0,0-1.62,3c-.44,1.22-1.46,2-2,3.11,0,.08-.14.14-.17.22a9.08,9.08,0,0,1-2.29,3.24,15.29,15.29,0,0,0-1.79,2.4A14,14,0,0,1,330.27,52c-.51.56-1.07,1.07-1.68,1.66M327,54.75a18.81,18.81,0,0,1-2.59,1.4m27.95,6.5c-.06-1-.12-1.81-.16-2.61-.06-1.33-.08-2.67-.18-4-.05-.65-.91-1.19-1.39-.83-1.22.93-2.87,1.28-3.72,2.7a4.78,4.78,0,0,1-.6.91c-.39.39-.52.69-.09,1.14a.72.72,0,0,0,1.18,0,.72.72,0,0,1,1-.09c.22.14.49.21.73.34.51.27,1.24.45.46,1.25l2.73,1.23m-1-11.26.14-.24c-.11-1.52-.21-3-.33-4.56,0-.18-.17-.51-.26-.51-1,0-2-.59-3,0,.12.2.3.43.26.48a14,14,0,0,1-1.2,1.35c-.73.72-1.56,1.38-1.27,2.71,2.05-.91,3.95-.87,5.66.74m-6.23,7.48a11.19,11.19,0,0,0,2.78-4l-2.8,0c0,1.32-.79,2.58,0,4" transform="translate(-1.8 -10.71)"/><path class="cls-2" d="M352.84,38.47c-.52.26-.81-.2-1-.74-.72-1.8-1.4-3.63-2.16-5.41a8.18,8.18,0,0,0-1.59-2.14c.4-.23.78-.49,1.19-.68a.86.86,0,0,1,.63,0c.8.41,1.58.86,2.29,1.25,1.28-1.63,3.13-2.35,4.78-3.36a15.36,15.36,0,0,0,1.51-1.18c.25-.19.53-.56.75-.53,2,.28,4.17.05,5.88,1.29a3.57,3.57,0,0,1,1.19,2.43c0,.79-.68,1.5-1.61,1.79a2.24,2.24,0,0,0-1.54,1.6,4.38,4.38,0,0,1-1.44,1.81,2.33,2.33,0,0,0-.77,2.09c0,.85-.41,1.18-1.12,1.38a14.52,14.52,0,0,0-2,.72c-.29.13-.47.48-.73.7a6.09,6.09,0,0,1-.87.64,11.09,11.09,0,0,0-1.31.74c-.57.46-1.08.43-1.4-.19a6.55,6.55,0,0,1-.56-1,5.13,5.13,0,0,1-.06-1.19m.39-8.4-.28.14a4.35,4.35,0,0,0,.24,1c.57,1.1,1.95,1.66,2,3.1,0,.11.69.34.76.26,1-1.11,1.94-2.26,2.89-3.4l-.23-.21a5,5,0,0,0-.59.53c-.85,1.12-1.37,1.19-2.51.31-.76-.59-1.53-1.15-2.3-1.72" transform="translate(-1.8 -10.71)"/><path class="cls-2" d="M130,50.17h0Z" transform="translate(-1.8 -10.71)"/><path class="cls-2" d="M117.23,51.07l7.37-10,.15.05c-.21.48-.43.95-.62,1.43-.32.82-.63,1.65-.92,2.49-.38,1.12-.76,2.24-1.08,3.37-.2.69-.25,1.41-.45,2.1a6.76,6.76,0,0,1-.58,1.18,2.91,2.91,0,0,0,2.53,0,21,21,0,0,0,2.09-.87,1.56,1.56,0,0,1,.64-.1c.31,0,.64.2.57-.37,0-.09.25-.25.4-.32.67-.29,1.37-.52,2-.87a.93.93,0,0,0,.43-.74c-.63-2.63,0-5.17.4-7.74a27,27,0,0,0,.09-3.25c0-.89.11-1.78.12-2.67,0-1.38,0-2.76,0-4.14a5.87,5.87,0,0,0,0-.59c-.15-2.13-.2-4.27-.49-6.38-.21-1.44-.66-2.91-2.58-3-.07,0-.15-.07-.22-.11l-.19-.12a1.57,1.57,0,0,0,.18-.19c.94-1.31,1.52-1.57,3.08-1.12a17.59,17.59,0,0,1,3,1.19A4.56,4.56,0,0,1,135,24.13c-.1,1.77-.23,3.54-.24,5.3a24.69,24.69,0,0,0,.31,3.09,4.48,4.48,0,0,0,.29.8l.72-1-.57.11-.06-.14c.85-.44,1.2-1.5,2.41-1.61a3.57,3.57,0,0,1,2.56.46.25.25,0,0,0,.16,0,1.64,1.64,0,0,1,1.68.52,6,6,0,0,1,1.5,3.2c.05.71-.46,1-.91,1.31a7.77,7.77,0,0,0-1.55,1c-1.22,1.43-3.06,1.66-4.6,2.48A2,2,0,0,0,135.32,42a20.13,20.13,0,0,1,0,2.8c-.05.52-.57,1-.07,1.58,0,0-.3.29-.41.47a2.88,2.88,0,0,0-.22.62c1.09-.4,2-.71,2.91-1.08a4.51,4.51,0,0,0,.88-.59c1-.7,2.06-.4,3.1-.4.76,0,1.51.16,2.26.18a2.25,2.25,0,0,1,2.07,1.54c.06.13.09.34.18.37,1.24.43.85,1.68,1.16,2.53.11.3-.65,1.11-1.17,1.38a6,6,0,0,1-2.1.42.88.88,0,0,1-.49-.19,5.91,5.91,0,0,1-.75.28c-1.34.21-2.82.19-3.9,1C137.29,54,135.5,54,134,54.73c-1,.53-2.45.64-3.09,1.9-.1.19-.48.28-.75.33-1.22.27-2.33,1.23-3.68.63a9,9,0,0,1-1.59-.85,31.23,31.23,0,0,1-3.09-2.5,5.91,5.91,0,0,1-.88-1.67c-.12,0-.2,0-.21.06-.52,1.1-1.1,2.17-1.53,3.3a12.22,12.22,0,0,1-.86,2.34,20.6,20.6,0,0,0-1.6,3.47,6.12,6.12,0,0,0-.2,1.56c-.16,1.4-1.09,1.52-2.28,1.79-1.64.38-2.47-.92-3-2a17.69,17.69,0,0,1-1.38-4.89,6.58,6.58,0,0,1,.51-2.51,13.38,13.38,0,0,0,.61-2c.17-1.5.21-3,.31-4.76a10.26,10.26,0,0,0-1.74.91,4.23,4.23,0,0,1-5.71-.45c-.52-.58-1.22-1-1.72-1.6A7.77,7.77,0,0,1,101.05,46a.92.92,0,0,1,.44-.75c1.77-.2,2.87-1.45,4.07-2.52,1.47-1.31,2.85-2.72,4.36-4a3.27,3.27,0,0,1,2.3-1c1.34.07,2.69-.12,4-.16.29,0,.74,0,.85.22a22.09,22.09,0,0,1,1.77,3.28c.31.81-.44,1.45-.94,2s-1,.65-.7,1.59a9,9,0,0,1-.25,2.88c-.07,1-.11,1.9-.15,2.85a2.51,2.51,0,0,0,.1.52l.28.13" transform="translate(-1.8 -10.71)"/><path class="cls-2" d="M117.49,32.35l-.17-.63c-.62.2-1.31.68-1.84.54-1.34-.35-2.17,1.22-3.46.75-.64-.24-1.27-.51-2.17-.87a3.73,3.73,0,0,0,1.81-3.35c-1.06.21-1.52-.64-2.23-1.09-1-.65-1.28-1.86-2.28-2.46-.36-.22-.36-.56.12-.75A29.47,29.47,0,0,1,111,23.08a4.12,4.12,0,0,1,3.24.39.67.67,0,0,0,.49.09c.86-.38,1.35.31,1.95.62a4.84,4.84,0,0,1,2.14,1.67c.11.15.52.43.61.58a18.9,18.9,0,0,1,1,2,1.42,1.42,0,0,1,0,.62,8.1,8.1,0,0,1-.31.95,1.12,1.12,0,0,1-.33.48c-.22.19-.51.3-.71.5-.46.47-.89,1-1.33,1.48l-.25-.15" transform="translate(-1.8 -10.71)"/><path class="cls-2" d="M193.39,47.27h-.21l.16-.05c.07,0,.08,0,0,.05" transform="translate(-1.8 -10.71)"/><path class="cls-2" d="M194.42,29.57c-.87.53-2,.79-2.4,1.95-.07.19-.36.3-.52.47s-.57.49-.62.78a9.36,9.36,0,0,1-1.65,3.56c-.22.35-.29.8-.48,1.17a3.25,3.25,0,0,1-.59.75c-.31.72.51,1.51-.13,2.27a2.31,2.31,0,0,1-.2.24.63.63,0,0,0,.2,1.13,6.49,6.49,0,0,0,1.25.17A4.29,4.29,0,0,1,192,43.29a20.23,20.23,0,0,0,1.46,1.6c.67.56.58,1.3.65,2,0,.2-.21.43-.34.64-.49.8-1,1.6-1.41,2.27,1.38.53,2.6.94,3.78,1.46a6.83,6.83,0,0,1,3,2.6c.68,1,1.35,2.09,2,3.14a4.24,4.24,0,0,1,.19,3.39l.27,0-.69.46c.94,1.74-1.19,1.44-1.48,2.36a4.94,4.94,0,0,1-3-2,4.47,4.47,0,0,1-.67-1.33,6.4,6.4,0,0,0,.12-1.67c-.29-1.35-.68-2.68-1-4a.83.83,0,0,0-.21-.29,17.81,17.81,0,0,1-4,5.07,18,18,0,0,0-2.66,2.33,7.05,7.05,0,0,1-3.87,1.92c-1.92.5-2.93-.32-3.08-2.3a4.07,4.07,0,0,0-.24-1.14,4,4,0,0,1,.38-3.17c.34-.88,1.1-1.21,1.63-1.81,1.22-1.41,2.25-3,3.36-4.5.54-.73,1.12-1.43,1.61-2.19A11.55,11.55,0,0,0,188.81,46a1,1,0,0,0-.42-.84,1.06,1.06,0,0,0-.95,0,17.83,17.83,0,0,1-2.85,2.14c-.93.4-.8,1.06-.87,1.66,0,.27.45.6.72.94a22.35,22.35,0,0,1-2.34,1,2,2,0,0,1-2.48-1.18,19.93,19.93,0,0,1-1-3.36,1.7,1.7,0,0,1,.72-2,.72.72,0,0,0,.3-.44c.43-2.44,1.92-4.42,2.83-6.76-2-1.22-4.31-2.21-5.91-4.11.05-.12.11-.25.16-.38.56.06,1.12.14,1.68.16a1.16,1.16,0,0,0,.58-.2l4.2-2.71c.51-.32,1-.71,1.52-1a1.8,1.8,0,0,0,1-1.41,14.32,14.32,0,0,0,.11-5.94c-.35-1.34-.41-1.42-1.64-1.51a8,8,0,0,1-.8-1.19c-.17-.35-.39-.92-.23-1.12a1.49,1.49,0,0,1,1.17-.46c1.62.2,3.23.5,4.84.81.89.17,2.74,2.21,2.68,3.13a6.18,6.18,0,0,1-.69,2.17c-.26.59-.11,1,.55,1,.85,0,1.69-.15,2.54-.15.53,0,1.21-.1,1.28.79,0,.08.44.17.68.18.43,0,.78-.05.64.6-.06.26.21.59.3.82l-1,1.61.21.15m-1.87,24.78a27.94,27.94,0,0,0-1.29-2.52c-.4-.63-1-.51-1.43.12-.54.86-1.1,1.71-1.68,2.54s-1.33,1.83-2,2.74c2-.5,3.91-1.12,5.13-3l1.27.13" transform="translate(-1.8 -10.71)"/><path class="cls-2" d="M170.86,46.49a1.78,1.78,0,0,1,.42,1.92A34.48,34.48,0,0,0,171,52c-.09.9-.21,1.8-.38,2.68-.22,1.06-.48,2.12-.77,3.16-.35,1.23-.76,2.44-1.13,3.66,0,.09,0,.25-.05.26-1.47.57-1.25,2.15-1.87,3.22-.5.86-1,1.6-2.09,1.57a2.4,2.4,0,0,1-2.39-1.59,26,26,0,0,1-1.42-4.2,23,23,0,0,1,0-4.06c0-1.48,0-3,.05-4.43.11-2,.32-4,.45-6,.08-1.3.09-2.61.15-3.92,0-.47.12-.94.18-1.42a3,3,0,0,1,2,1.4,9.57,9.57,0,0,0,2.12,1.94,2.7,2.7,0,0,1,1.27,3.38,12.56,12.56,0,0,0-.32,6.45c1.56-2.41,3.74-4.43,4.06-7.56" transform="translate(-1.8 -10.71)"/><path class="cls-2" d="M173.33,29.35a18,18,0,0,1-.63,2.16,1.73,1.73,0,0,1-2.28.75,3.28,3.28,0,0,0-2.85.86c-.61.76-1.27,1.48-1.93,2.2-.09.09-.3.08-.46.12a1.82,1.82,0,0,1-.12-.54c.2-1.47.43-2.94.61-4.41.23-1.81-.8-2.89-2.26-3.67-.62-.33-1-.69-.74-1.43a.78.78,0,0,1,.41-.39c.57-.23,1.18-.4,1.75-.65a1.29,1.29,0,0,1,1.53.23,8.05,8.05,0,0,0,1.46,1c1.43.78,2.91,1.45,4.29,2.3a5.94,5.94,0,0,1,1.22,1.5" transform="translate(-1.8 -10.71)"/><path class="cls-2" d="M274.89,64.47c-.51,0-1.1-.27-1.5-.08-.85.38-1.05-.45-1.57-.65l-1.14-2.44c0-.38,0-.81,0-1.3l.58-.08c-.13-.29-.23-.53-.33-.77l.72-.26.07.13a3.19,3.19,0,0,0,3.59,1.64,4.82,4.82,0,0,0,2.17-1.32c1.31-1.48,2.47-3.08,3.65-4.66a7.19,7.19,0,0,0,.59-1.24c-2.44-.09-4.52-.59-6-2.67l.57-.64c.34.09.69.31.88.21a10.53,10.53,0,0,1,5.91-1.11,1.31,1.31,0,0,0,.31-.1c0-.38,0-.75,0-1.17-.15,0-.26,0-.38,0-1.83.26-1.88.49-1.7-1.7a6.64,6.64,0,0,0,.06-1.09c-.14-1.33.32-1.95,1.59-2.09.93-.1,1.82-1.17,1.6-1.94a1.72,1.72,0,0,0,.39-2c-1.15.51-1.3,1.31-.36,2-.69,0-1.38,0-2.06,0s-1.15-1.15-.7-1.91a16.57,16.57,0,0,1,1.73-2.2c.47-.54,1-1,1.51-1.55a2.75,2.75,0,0,0,.31-.88l-2.38.7c-.79-.16-1.49-.28-2.18-.46-.16,0-.26-.28-.28-.31.63-.51,1.21-1,1.77-1.44.78-.67,1.57-1.35,2.29-2.08a1.67,1.67,0,0,0,.46-1.08c-.05-1.15-.23-2.29-.31-3.43-.05-.62-.18-.76-.91-.83-1.88-.17-3.85-.32-5.12-2.13-.47-.67-1.3-1.1-1.27-2.15a3.34,3.34,0,0,0,2.94,0,23.72,23.72,0,0,0,6.49-3.37,9.86,9.86,0,0,1,2.26-1.26,5.62,5.62,0,0,1,2.13-.23c.9,0,1.79.24,2.69.35a3.28,3.28,0,0,1,2.47,1.67l-.5.23c.2.19.37.35.38.37a3.35,3.35,0,0,0,.06,1c.59,1.33.37,1.7-1.08,1.71h-.09c-.9.53-1.78,0-2.67,0-.59,0-1.19.5-1.78.78a5.16,5.16,0,0,0-1.14.65l-2.45,1.32,1.84,2.91c2-.58,4.14-1.22,6.28-1.76a2.3,2.3,0,0,1,1.4.4c.9.48,1.72,1.1,2.63,1.55A1.89,1.89,0,0,1,300.45,30c-.16.47-.44.91-.64,1.38a4.69,4.69,0,0,0-.17.67l-.42,1.64s0,0,0,.08a3.39,3.39,0,0,1-1.74,3.2c-.06,0-.13.31,0,.69-.09,0,0,.34-.06.35-.1.92-.15,1.76-.31,2.57a3.23,3.23,0,0,1-.59,1.11c-.61.85-1.23,1.69-1.88,2.51a1,1,0,0,1-.66.41A3.14,3.14,0,0,0,291.69,46c-.7.74-1.6.43-2.39.38s-1.21.16-1.39.91a8.57,8.57,0,0,1-.27.86c-.57,1.69-.53,1.89,1.23,2.33a25.21,25.21,0,0,1,5.25,2.33c1.4.69,2.87,1.23,4.28,1.92a34.3,34.3,0,0,1,3.29,1.86,25.86,25.86,0,0,1,3.5,2.51,8.29,8.29,0,0,1,2.71,7.22,1.17,1.17,0,0,0,0,.26.47.47,0,0,1,0,.14c-.42-.22-.86-.43-1.28-.66-1.12-.6-2.23-1.23-3.37-1.82-.8-.41-1.66-.72-2.45-1.16-1.1-.62-2.14-1.35-3.24-2-1.43-.8-2.9-1.53-4.36-2.29a1.19,1.19,0,0,1-.16-.08,14.43,14.43,0,0,0-4.91-2.6,12.19,12.19,0,0,0-2.65-.79c-.33,0-1,.49-1.09.87a8.59,8.59,0,0,1-1.5,2.57c-.71,1.05-1.29,2.19-2,3.25a1.46,1.46,0,0,1-.85.66c-1.19.09-1.67,1.17-2.56,1.67m13-23.4c.52.42.8.34,1.06-.18a17.37,17.37,0,0,1,1.08-1.74c.44-.66,1.51-1,1-2.12,0,0,.1-.15.12-.23.45-1.83.94-3.64,1.34-5.48.1-.45-.21-.75-.74-.5-1.78.82-3.87,1-5.24,2.6.65.42,1.39.83,2.06,1.34a1.3,1.3,0,0,1,.22,2,2,2,0,0,0-.25.65c-.4.37-.71.54-.83.8a4.45,4.45,0,0,0-.23,1.12c-.13.62,1.1.86.38,1.73" transform="translate(-1.8 -10.71)"/><path class="cls-2" d="M274.65,32.72c1-.55,1.55.46,2.12,1a22.34,22.34,0,0,1,2.15,2.49,3.53,3.53,0,0,0,.59.57,1.48,1.48,0,0,1,.75,1.76,1,1,0,0,0,0,.53c.31.83.61,1.67,1,2.48a1.46,1.46,0,0,1-.39,2,1.27,1.27,0,0,0-.26,1,1.17,1.17,0,0,1-.84,1.47,2.33,2.33,0,0,1-2-.74c-1.11-1.07-1.37-2.5-1.8-3.82-.53-1.62-.8-3.32-1.17-5a4.89,4.89,0,0,1-.11-1.08c0-.84,0-1.69,0-2.66" transform="translate(-1.8 -10.71)"/></svg>