<svg xmlns="http://www.w3.org/2000/svg" width="16" height="16" class="icon" viewBox="0 0 1024 1024"><path fill="#606266" d="m735.296 216.96 14.912 11.264A385.6 385.6 0 0 1 894.72 498.752a386.18 386.18 0 0 1-111.232 304.32A381.9 381.9 0 0 1 512 916.096a381.5 381.5 0 0 1-271.488-113.152 386.24 386.24 0 0 1 49.664-587.008 46.976 46.976 0 0 1 61.952 13.184 47.23 47.23 0 0 1-8.576 63.616 295.7 295.7 0 0 0-88.448 102.016 288.8 288.8 0 0 0-33.152 135.488 291.2 291.2 0 0 0 85.12 206.72c54.208 54.912 128 85.696 204.928 85.504 77.44 0 150.208-30.336 205.12-85.568a291.07 291.07 0 0 0 84.992-206.72 288.6 288.6 0 0 0-33.152-135.36 295.4 295.4 0 0 0-88.448-101.952 46.784 46.784 0 1 1 54.848-75.904zM520.576 84.096c25.152 0 45.76 19.84 46.912 45.632v340.48a46.784 46.784 0 0 1-46.912 46.848 46.85 46.85 0 0 1-46.912-46.784V128.896c1.152-24.96 21.76-44.8 46.912-44.8"/></svg>